<svg width="129" height="129" viewBox="0 0 129 129" fill="none" xmlns="http://www.w3.org/2000/svg">
<g opacity="0.96">
<path d="M0.414062 64.8662C0.414062 29.52 29.0678 0.866211 64.4141 0.866211V0.866211C99.7603 0.866211 128.414 29.52 128.414 64.8662V64.8662C128.414 100.212 99.7603 128.866 64.4141 128.866V128.866C29.0678 128.866 0.414062 100.212 0.414062 64.8662V64.8662Z" fill="url(#paint0_linear)"/>
<path d="M74.4414 28.1396L101.445 74.9113L54.6734 101.915L27.6697 55.1433L74.4414 28.1396Z" fill="url(#paint1_linear)"/>
<path d="M83.6992 31.9736L97.6773 84.1407L45.5103 98.1188L31.5322 45.9518L83.6992 31.9736Z" fill="url(#paint2_linear)"/>
<path d="M37.4102 37.8623H91.4175V91.8696H37.4102V37.8623Z" fill="url(#paint3_linear)"/>
<path fill-rule="evenodd" clip-rule="evenodd" d="M90.6646 38.6151H38.163V91.1168H90.6646V38.6151ZM37.4102 37.8623V91.8696H91.4175V37.8623H37.4102Z" fill="#1E1F2D"/>
</g>
<defs>
<linearGradient id="paint0_linear" x1="115.629" y1="116.852" x2="0.313096" y2="104.97" gradientUnits="userSpaceOnUse">
<stop stop-color="#1E1F2D"/>
<stop offset="1" stop-color="#2F303C"/>
</linearGradient>
<linearGradient id="paint1_linear" x1="76.7256" y1="32.0963" x2="101.24" y2="75.785" gradientUnits="userSpaceOnUse">
<stop offset="0.0453179" stop-color="#F3D572"/>
<stop offset="0.484572" stop-color="#FAE373"/>
<stop offset="1" stop-color="#F9E99A"/>
</linearGradient>
<linearGradient id="paint2_linear" x1="84.8815" y1="36.3867" x2="97.2536" y2="84.9316" gradientUnits="userSpaceOnUse">
<stop offset="0.0453179" stop-color="#5D72E4"/>
<stop offset="1" stop-color="#8395F3"/>
</linearGradient>
<linearGradient id="paint3_linear" x1="86.0232" y1="86.8003" x2="37.3676" y2="81.7871" gradientUnits="userSpaceOnUse">
<stop stop-color="#1E1F2D"/>
<stop offset="1" stop-color="#2F303C"/>
</linearGradient>
</defs>
</svg>
